<svg xmlns="http://www.w3.org/2000/svg" width="1400" height="900" viewBox="0 0 1400 900" role="img" aria-label="In-Accord monochrome logo">
  <rect width="1400" height="900" fill="#111"/>
  <circle cx="700" cy="500" r="385" fill="none" stroke="#f2f2f2" stroke-width="10"/>
  <g transform="translate(700 390)">
    <path d="M-430,35 C-410,-90 -300,-130 -180,-122 C-95,-116 -42,-84 0,-42 C42,-84 95,-116 180,-122 C300,-130 410,-90 430,35 C446,136 390,198 312,202 C236,206 204,154 172,106 C142,60 108,42 0,42 C-108,42 -142,60 -172,106 C-204,154 -236,206 -312,202 C-390,198 -446,136 -430,35 Z"
          fill="none" stroke="#f2f2f2" stroke-width="16"/>

    <circle cx="-220" cy="22" r="68" fill="none" stroke="#f2f2f2" stroke-width="10"/>
    <rect x="-230" y="-18" width="20" height="80" rx="6" fill="#f2f2f2"/>
    <rect x="-260" y="12" width="80" height="20" rx="6" fill="#f2f2f2"/>

    <circle cx="220" cy="22" r="68" fill="none" stroke="#f2f2f2" stroke-width="10"/>
    <circle cx="196" cy="-2" r="11" fill="#f2f2f2"/>
    <circle cx="244" cy="-2" r="11" fill="#f2f2f2"/>
    <circle cx="196" cy="46" r="11" fill="#f2f2f2"/>
    <circle cx="244" cy="46" r="11" fill="#f2f2f2"/>

    <circle cx="-95" cy="86" r="38" fill="none" stroke="#f2f2f2" stroke-width="8"/>
    <circle cx="95" cy="86" r="38" fill="none" stroke="#f2f2f2" stroke-width="8"/>

    <circle cx="-330" cy="-22" r="34" fill="none" stroke="#f2f2f2" stroke-width="8"/>
    <circle cx="330" cy="-22" r="34" fill="none" stroke="#f2f2f2" stroke-width="8"/>
  </g>

  <text x="700" y="765" text-anchor="middle" font-family="Cinzel, Garamond, serif" font-size="96" letter-spacing="4" fill="#f2f2f2">In-Accord</text>
  <text x="700" y="812" text-anchor="middle" font-family="Segoe UI, Arial, sans-serif" font-size="30" letter-spacing="3" fill="#d7d7d7">Social Your Way!</text>
</svg>
