<svg xmlns="http://www.w3.org/2000/svg" width="256" height="256" viewBox="0 0 256 256" role="img" aria-label="In-Accord favicon">
  <defs>
    <linearGradient id="bg" x1="0" y1="0" x2="1" y2="1">
      <stop offset="0%" stop-color="#151c27"/>
      <stop offset="100%" stop-color="#2a384b"/>
    </linearGradient>
    <linearGradient id="brass" x1="0" y1="0" x2="1" y2="1">
      <stop offset="0%" stop-color="#f5d07a"/>
      <stop offset="100%" stop-color="#8b6327"/>
    </linearGradient>
  </defs>
  <rect width="256" height="256" rx="56" fill="url(#bg)"/>
  <path d="M36,128 C40,86 70,68 100,70 C113,71 121,76 128,84 C135,76 143,71 156,70 C186,68 216,86 220,128 C223,155 207,173 184,174 C162,175 152,162 143,149 C138,142 133,139 128,139 C123,139 118,142 113,149 C104,162 94,175 72,174 C49,173 33,155 36,128 Z"
        fill="none" stroke="#d8e0eb" stroke-width="8"/>
  <circle cx="88" cy="123" r="20" fill="none" stroke="url(#brass)" stroke-width="6"/>
  <rect x="85" y="110" width="6" height="26" fill="url(#brass)"/>
  <rect x="75" y="120" width="26" height="6" fill="url(#brass)"/>
  <circle cx="168" cy="123" r="20" fill="none" stroke="url(#brass)" stroke-width="6"/>
  <circle cx="161" cy="116" r="4.5" fill="url(#brass)"/>
  <circle cx="175" cy="116" r="4.5" fill="url(#brass)"/>
  <circle cx="161" cy="130" r="4.5" fill="url(#brass)"/>
  <circle cx="175" cy="130" r="4.5" fill="url(#brass)"/>
  <circle cx="128" cy="98" r="10" fill="url(#brass)"/>
</svg>
